<svg xmlns="http://www.w3.org/2000/svg" width="512" height="512" viewBox="0 0 512 512" version="1.1"><path d="M 38 1.379 C 25.380 4.869, 11.545 15.682, 5.761 26.575 C -0.374 38.127, -0.002 23.270, 0.024 255.960 C 0.040 393.104, 0.401 470.028, 1.043 472.808 C 3.920 485.286, 15.386 500.298, 26.575 506.239 C 38.127 512.374, 23.270 512.002, 255.960 511.976 C 393.104 511.960, 470.028 511.599, 472.808 510.957 C 489.160 507.186, 505.188 492.439, 509.604 477.102 C 510.492 474.021, 511.618 470.719, 512.109 469.764 C 513.276 467.490, 513.295 40.700, 512.128 41.421 C 511.648 41.718, 511.013 40.467, 510.717 38.642 C 508.980 27.941, 496.403 11.590, 485.425 5.761 C 473.868 -0.376, 488.805 -0.006, 255.540 0.067 C 88.868 0.120, 41.521 0.406, 38 1.379 M 0.491 256 C 0.491 373.975, 0.607 422.238, 0.750 363.250 C 0.892 304.263, 0.892 207.738, 0.750 148.750 C 0.607 89.763, 0.491 138.025, 0.491 256 M 142 82.125 C 110.168 85.797, 89.714 99.919, 79.020 125.608 C 68.656 150.503, 66.053 179.837, 66.032 272 C 66.016 339.993, 67.505 359.924, 74.108 380.116 C 85.992 416.458, 114.804 432.683, 163.975 430.725 C 185.730 429.859, 199.419 425.872, 212.372 416.628 C 227.894 405.553, 237.484 389.849, 243.400 365.819 C 247.445 349.394, 248.455 339.190, 248.430 315 C 248.405 290.937, 247.313 279.623, 243.422 263.115 C 235.673 230.244, 215.694 215, 180.366 215 C 163.290 215, 152.693 219.036, 143.916 228.884 L 139 234.399 139.044 201.450 C 139.092 165.405, 139.764 156.003, 142.698 150.350 C 145.883 144.212, 148.988 142.561, 158.119 142.146 L 166.104 141.784 169.905 145.779 C 174.795 150.920, 176.072 155.952, 176.749 172.750 L 177.284 186 210.142 186 L 243 186 243 162.160 C 243 135.403, 241.773 127.591, 235.983 117.470 C 230.191 107.346, 218.866 96.920, 207.500 91.247 C 190.576 82.800, 165.918 79.365, 142 82.125 M 340 82.100 C 318.175 84.546, 302.001 91.814, 289.930 104.600 C 276.423 118.908, 269.402 139.813, 265.783 176.500 C 263.965 194.918, 263.963 339.722, 265.779 352.500 C 271.894 395.514, 287.546 417.212, 319.044 426.340 C 331.704 430.009, 345.031 431.368, 361.885 430.711 C 398.398 429.287, 419.833 416.370, 433.593 387.500 C 442.184 369.476, 446.093 347.122, 446.115 315.883 C 446.132 293.562, 444.926 280.119, 441.548 264.947 C 433.873 230.475, 414.067 215, 377.622 215 C 359.209 215, 347.977 219.829, 339.242 231.500 L 336.997 234.500 337.248 195.500 L 337.500 156.500 340 151.552 C 343.660 144.307, 346.580 142.579, 355.875 142.157 C 363.009 141.833, 363.857 142.009, 366.698 144.399 C 368.393 145.826, 370.511 148.819, 371.404 151.051 C 373.168 155.461, 374.955 169.789, 374.983 179.750 L 375 186 408.098 186 L 441.197 186 440.754 160.250 C 440.393 139.265, 439.984 133.482, 438.545 129 C 431.766 107.885, 414.929 92.897, 389.809 85.618 C 374.436 81.163, 358.443 80.033, 340 82.100 M 147.952 278.253 C 142.881 281.671, 141.043 285.734, 139.853 296.162 C 138.555 307.532, 139.357 349.922, 140.971 355.277 C 145.566 370.526, 166.718 372.280, 171.010 357.767 C 171.848 354.933, 172.424 343.531, 172.724 323.810 C 173.240 289.955, 172.606 285.406, 166.520 279.320 C 163.504 276.304, 162.655 276, 157.248 276 C 152.729 276, 150.491 276.542, 147.952 278.253 M 346.389 277.905 C 337.835 283.120, 336.739 288.770, 337.173 325.408 C 337.482 351.532, 337.654 353.822, 339.626 358.092 C 342.713 364.773, 347.041 367.503, 354.500 367.472 C 368.995 367.413, 371.475 359.460, 370.744 315.369 C 370.288 287.858, 369.738 284.804, 364.239 279.306 C 361.268 276.334, 360.355 276, 355.217 276.004 C 351.368 276.006, 348.483 276.628, 346.389 277.905" stroke="none" fill="#040404" fill-rule="evenodd"/><path d="M 142 82.125 C 110.168 85.797, 89.714 99.919, 79.020 125.608 C 68.656 150.503, 66.053 179.837, 66.032 272 C 66.016 339.993, 67.505 359.924, 74.108 380.116 C 85.992 416.458, 114.804 432.683, 163.975 430.725 C 185.730 429.859, 199.419 425.872, 212.372 416.628 C 227.894 405.553, 237.484 389.849, 243.400 365.819 C 247.445 349.394, 248.455 339.190, 248.430 315 C 248.405 290.937, 247.313 279.623, 243.422 263.115 C 235.673 230.244, 215.694 215, 180.366 215 C 163.290 215, 152.693 219.036, 143.916 228.884 L 139 234.399 139.044 201.450 C 139.092 165.405, 139.764 156.003, 142.698 150.350 C 145.883 144.212, 148.988 142.561, 158.119 142.146 L 166.104 141.784 169.905 145.779 C 174.795 150.920, 176.072 155.952, 176.749 172.750 L 177.284 186 210.142 186 L 243 186 243 162.160 C 243 135.403, 241.773 127.591, 235.983 117.470 C 230.191 107.346, 218.866 96.920, 207.500 91.247 C 190.576 82.800, 165.918 79.365, 142 82.125 M 340 82.100 C 318.175 84.546, 302.001 91.814, 289.930 104.600 C 276.423 118.908, 269.402 139.813, 265.783 176.500 C 263.965 194.918, 263.963 339.722, 265.779 352.500 C 271.894 395.514, 287.546 417.212, 319.044 426.340 C 331.704 430.009, 345.031 431.368, 361.885 430.711 C 398.398 429.287, 419.833 416.370, 433.593 387.500 C 442.184 369.476, 446.093 347.122, 446.115 315.883 C 446.132 293.562, 444.926 280.119, 441.548 264.947 C 433.873 230.475, 414.067 215, 377.622 215 C 359.209 215, 347.977 219.829, 339.242 231.500 L 336.997 234.500 337.248 195.500 L 337.500 156.500 340 151.552 C 343.660 144.307, 346.580 142.579, 355.875 142.157 C 363.009 141.833, 363.857 142.009, 366.698 144.399 C 368.393 145.826, 370.511 148.819, 371.404 151.051 C 373.168 155.461, 374.955 169.789, 374.983 179.750 L 375 186 408.098 186 L 441.197 186 440.754 160.250 C 440.393 139.265, 439.984 133.482, 438.545 129 C 431.766 107.885, 414.929 92.897, 389.809 85.618 C 374.436 81.163, 358.443 80.033, 340 82.100 M 147.952 278.253 C 142.881 281.671, 141.043 285.734, 139.853 296.162 C 138.555 307.532, 139.357 349.922, 140.971 355.277 C 145.566 370.526, 166.718 372.280, 171.010 357.767 C 171.848 354.933, 172.424 343.531, 172.724 323.810 C 173.240 289.955, 172.606 285.406, 166.520 279.320 C 163.504 276.304, 162.655 276, 157.248 276 C 152.729 276, 150.491 276.542, 147.952 278.253 M 346.389 277.905 C 337.835 283.120, 336.739 288.770, 337.173 325.408 C 337.482 351.532, 337.654 353.822, 339.626 358.092 C 342.713 364.773, 347.041 367.503, 354.500 367.472 C 368.995 367.413, 371.475 359.460, 370.744 315.369 C 370.288 287.858, 369.738 284.804, 364.239 279.306 C 361.268 276.334, 360.355 276, 355.217 276.004 C 351.368 276.006, 348.483 276.628, 346.389 277.905" stroke="none" fill="#fafafa" fill-rule="evenodd"/></svg>